<svg xmlns="http://www.w3.org/2000/svg" viewBox="0 0 689.01 395.38"><defs><style>.cls-1{fill:#00aeef;}.cls-2{fill:#00456e;}</style></defs><g id="Layer_2" data-name="Layer 2"><g id="Layer_1-2" data-name="Layer 1"><path class="cls-1" d="M475.84,180.56a5.65,5.65,0,0,1-4-9.64l32.85-32.85-32.85-32.85a5.65,5.65,0,0,1,8-8l36.84,36.84a5.64,5.64,0,0,1,0,8l-36.84,36.85A5.7,5.7,0,0,1,475.84,180.56Z"/><path class="cls-1" d="M213.17,180.56a5.7,5.7,0,0,1-4-1.65l-36.84-36.85a5.65,5.65,0,0,1,0-8l36.84-36.85a5.65,5.65,0,1,1,8,8l-32.84,32.85,32.84,32.85a5.65,5.65,0,0,1-4,9.64Z"/><path class="cls-2" d="M428.17,143s-4.57,3.67-5.07,16.88-5.59,16.12-14.22,23.23,1.53,15.74-7.11,27.92-7.12-9.14-8.12-17.76-32.51-18.8-42.15-21c-3-.67-5.35-.43-7,.55-1.67-1-4-1.22-7-.55-9.66,2.19-41.13,12.35-42.15,21s.5,30-8.12,17.76,1.52-20.81-7.12-27.92-13.71-10-14.21-23.23S260.76,143,260.76,143s-2,51.28,18.28,81.24c20.14,29.69,44.24,43.4,65.43,41.29,21.19,2.11,45.29-11.6,65.42-41.29C430.21,194.24,428.17,143,428.17,143Zm-64,85.81c-15.24,6.6-11.67-19.92-11.67-19.92H336.43s3.55,26.52-11.69,19.92-24.37-26.4-8.62-31.49c15.14-4.87,23.23.28,28.35-8.47,5.11,8.75,13.21,3.6,28.35,8.47C388.56,202.37,379.42,222.18,364.19,228.77Z"/><path class="cls-2" d="M439.33,115.72a5.31,5.31,0,0,1-3.16-1c-22.78-16.84-56.21-26.5-91.72-26.5s-68.93,9.65-91.68,26.49a5.33,5.33,0,0,1-6.35-8.57c24.55-18.17,60.28-28.59,98-28.59s73.48,10.42,98.06,28.59a5.33,5.33,0,0,1-3.18,9.62Z"/><path class="cls-2" d="M432.75,108.81a3.5,3.5,0,0,1-3.5-3.5V64a47.76,47.76,0,0,0-36.4-46.46L355.92,8.38a48.23,48.23,0,0,0-22.91,0l-36.93,9.11A47.76,47.76,0,0,0,259.68,64v41.36a3.5,3.5,0,0,1-7,0V64A54.75,54.75,0,0,1,294.4,10.69l36.94-9.1a55,55,0,0,1,26.25,0l36.94,9.1A54.75,54.75,0,0,1,436.25,64v41.36A3.5,3.5,0,0,1,432.75,108.81Z"/><path class="cls-1" d="M0,394.33v-77H16.32v63.49H47.54v13.48Z"/><path class="cls-1" d="M120.32,317.36v49.8a28.7,28.7,0,0,1-3.82,15,24.8,24.8,0,0,1-11,9.84,39.41,39.41,0,0,1-17,3.42q-14.85,0-23.06-7.61T57.15,367V317.36H73.42v47.12q0,8.89,3.58,13t11.84,4.16q8,0,11.61-4.18t3.6-13.14v-47Z"/><path class="cls-1" d="M135.93,394.33v-77h16.32v77Z"/><path class="cls-1" d="M218.56,394.33H161.28V383.75l36.91-52.91H162.28V317.36h55.28v10.53l-36.85,53h37.85Z"/><path class="cls-2" d="M259.76,394.33,244,338.89h-.48q1.11,14.17,1.11,22v33.43H226.22v-77h27.69L270,372h.42l15.74-54.65h27.74v77H294.76V360.58c0-1.75,0-3.7.08-5.84s.29-7.39.71-15.74h-.47l-15.53,55.33Z"/><path class="cls-2" d="M377.68,394.33l-3.79-14.43h-25L345,394.33H322.14l25.11-77.28H375l25.43,77.28Zm-8.11-31.48-3.32-12.64c-.77-2.8-1.71-6.44-2.81-10.89s-1.84-7.66-2.19-9.59c-.31,1.79-.94,4.74-1.87,8.85s-3,12.19-6.18,24.27Z"/><path class="cls-2" d="M443,333.31a13.26,13.26,0,0,0-11.58,6.08q-4.17,6.09-4.16,16.77,0,22.21,16.9,22.22a34.83,34.83,0,0,0,9.89-1.42,97.7,97.7,0,0,0,9.64-3.43v17.59a53.37,53.37,0,0,1-21.8,4.26q-17.41,0-26.71-10.11t-9.29-29.21a46.65,46.65,0,0,1,4.5-21,32.15,32.15,0,0,1,13-13.92q8.44-4.87,19.87-4.87a54.81,54.81,0,0,1,23.85,5.42l-6.37,16.37a74.31,74.31,0,0,0-8.53-3.37A29.89,29.89,0,0,0,443,333.31Z"/><path class="cls-2" d="M524.4,394.33H478.7v-77h45.7v16.69H499.5v12.11h23v16.69h-23v14.53h24.9Z"/><path class="cls-2" d="M603.2,354.21q0,19.28-10.6,29.69t-29.83,10.43h-24.9v-77h26.64q18.53,0,28.61,9.48T603.2,354.21Zm-21.58.74q0-10.57-4.19-15.69t-12.71-5.1h-6.05v43.11h4.63q9.48,0,13.9-5.5T581.62,355Z"/><path class="cls-2" d="M689,355.74q0,19.42-9.53,29.53t-27.9,10.11q-18.11,0-27.77-10.16t-9.66-29.59q0-19.2,9.61-29.34t27.93-10.14q18.38,0,27.85,10.06T689,355.74Zm-53,0q0,22.32,15.53,22.32,7.9,0,11.72-5.42t3.81-16.9q0-11.53-3.87-17t-11.55-5.5Q636,333.21,636.05,355.74Z"/></g></g></svg>