<svg xmlns="http://www.w3.org/2000/svg" viewBox="0 0 1087.67 264.72"><defs><style>.cls-1{fill:#00aeef;}.cls-2{fill:#fff;}</style></defs><g id="Layer_2" data-name="Layer 2"><g id="Layer_1-2" data-name="Layer 1"><path class="cls-1" d="M305.17,180.56a5.65,5.65,0,0,1-4-9.64L334,138.07l-32.85-32.85a5.65,5.65,0,1,1,8-8L346,134.07a5.64,5.64,0,0,1,0,8l-36.84,36.85A5.68,5.68,0,0,1,305.17,180.56Z"/><path class="cls-1" d="M42.49,180.56a5.68,5.68,0,0,1-4-1.65L1.65,142.06a5.65,5.65,0,0,1,0-8L38.5,97.23a5.65,5.65,0,1,1,8,8L13.64,138.07l32.84,32.85a5.65,5.65,0,0,1-4,9.64Z"/><path class="cls-2" d="M257.49,143s-4.57,3.67-5.07,16.88-5.59,16.12-14.21,23.23,1.52,15.74-7.12,27.92S224,201.85,223,193.23s-32.51-18.8-42.15-21c-3-.67-5.35-.43-7,.55-1.68-1-4-1.22-7-.55-9.65,2.19-41.13,12.35-42.15,21s.5,30-8.12,17.76,1.52-20.81-7.11-27.92-13.71-10-14.22-23.23S90.08,143,90.08,143s-2,51.28,18.29,81.24c20.14,29.69,44.24,42.4,65.43,40.29,21.19,2.11,45.29-10.6,65.41-40.29C259.53,194.24,257.49,143,257.49,143Zm-64,85.81c-15.23,6.6-11.67-19.92-11.67-19.92H165.75s3.55,26.52-11.68,19.92-24.38-26.4-8.62-31.49c15.14-4.87,23.23.28,28.35-8.47,5.1,8.75,13.2,3.6,28.35,8.47C217.88,202.37,208.74,222.18,193.51,228.77Z"/><path class="cls-2" d="M268.66,115.72a5.32,5.32,0,0,1-3.17-1c-22.78-16.84-56.21-26.5-91.71-26.5s-68.94,9.65-91.69,26.49a5.33,5.33,0,1,1-6.34-8.57c24.54-18.17,60.27-28.59,98-28.59s73.47,10.42,98,28.59a5.33,5.33,0,0,1-3.17,9.62Z"/><path class="cls-2" d="M262.07,108.81a3.5,3.5,0,0,1-3.5-3.5V64a47.75,47.75,0,0,0-36.39-46.46L185.24,8.38a48.19,48.19,0,0,0-22.9,0L125.4,17.49A47.75,47.75,0,0,0,89,64v41.36a3.5,3.5,0,0,1-7,0V64a54.74,54.74,0,0,1,41.72-53.26l36.93-9.1a55,55,0,0,1,26.26,0l36.93,9.1A54.74,54.74,0,0,1,265.57,64v41.36A3.5,3.5,0,0,1,262.07,108.81Z"/><path class="cls-1" d="M398.66,174.88v-77H415v63.49H446.2v13.47Z"/><path class="cls-1" d="M519,97.92v49.8a28.67,28.67,0,0,1-3.82,14.95,24.8,24.8,0,0,1-11,9.84,39.3,39.3,0,0,1-17.05,3.42q-14.85,0-23.06-7.6t-8.21-20.82V97.92h16.26V145q0,8.9,3.58,13.06t11.85,4.16q8,0,11.61-4.19t3.6-13.13v-47Z"/><path class="cls-1" d="M534.59,174.88v-77h16.32v77Z"/><path class="cls-1" d="M617.22,174.88H559.94V164.3l36.9-52.91h-35.9V97.92h55.28v10.53l-36.85,53h37.85Z"/><path class="cls-2" d="M658.41,174.88l-15.74-55.43h-.47q1.11,14.16,1.11,22v33.43H624.88v-77h27.69l16.06,54.64h.42l15.74-54.64h27.74v77H693.42V141.14c0-1.76,0-3.71.08-5.85s.29-7.38.71-15.74h-.47l-15.53,55.33Z"/><path class="cls-2" d="M776.34,174.88l-3.79-14.42h-25l-3.9,14.42H720.8L745.91,97.6h27.74l25.43,77.28Zm-8.11-31.48-3.32-12.63q-1.15-4.22-2.81-10.9t-2.19-9.58c-.31,1.79-.94,4.74-1.87,8.84s-3,12.2-6.18,24.27Z"/><path class="cls-2" d="M841.67,113.87A13.27,13.27,0,0,0,830.08,120q-4.16,6.08-4.15,16.77,0,22.22,16.89,22.21a34.5,34.5,0,0,0,9.9-1.42,100.07,100.07,0,0,0,9.63-3.42v17.58a53.32,53.32,0,0,1-21.79,4.26q-17.43,0-26.72-10.1t-9.29-29.22a46.57,46.57,0,0,1,4.5-21,32.23,32.23,0,0,1,13-13.93,39.21,39.21,0,0,1,19.88-4.87,54.8,54.8,0,0,1,23.84,5.42l-6.37,16.38a70,70,0,0,0-8.52-3.37A29.63,29.63,0,0,0,841.67,113.87Z"/><path class="cls-2" d="M923.05,174.88H877.36v-77h45.69V114.6h-24.9v12.11h23.06V143.4H898.15v14.53h24.9Z"/><path class="cls-2" d="M1001.86,134.77q0,19.26-10.61,29.69t-29.82,10.42h-24.9v-77h26.64q18.52,0,28.61,9.47T1001.86,134.77Zm-21.58.74q0-10.59-4.19-15.69t-12.71-5.11h-6v43.12H962q9.46,0,13.9-5.51T980.28,135.51Z"/><path class="cls-2" d="M1087.67,136.29q0,19.43-9.53,29.54t-27.9,10.1q-18.1,0-27.77-10.16t-9.66-29.58q0-19.22,9.61-29.35t27.93-10.13q18.36,0,27.84,10.05T1087.67,136.29Zm-53,0q0,22.34,15.53,22.33,7.9,0,11.71-5.43t3.82-16.9q0-11.52-3.87-17t-11.55-5.5Q1034.71,113.76,1034.71,136.29Z"/></g></g></svg>