<?xml version="1.0" standalone="no"?>
<!DOCTYPE svg PUBLIC "-//W3C//DTD SVG 20010904//EN"
 "http://www.w3.org/TR/2001/REC-SVG-20010904/DTD/svg10.dtd">
<svg version="1.0" xmlns="http://www.w3.org/2000/svg"
 width="354.000000pt" height="354.000000pt" viewBox="0 0 354.000000 354.000000"
 preserveAspectRatio="xMidYMid meet">
<metadata>
Created by potrace 1.11, written by Peter Selinger 2001-2013
</metadata>
<g transform="translate(0.000000,354.000000) scale(0.100000,-0.100000)"
fill="#000000" stroke="none">
<path d="M1650 3084 c-213 -45 -431 -106 -495 -138 -134 -67 -222 -168 -271
-313 -28 -79 -32 -142 -34 -518 -1 -35 -6 -43 -40 -67 -53 -37 -55 -86 -3
-102 19 -6 57 7 73 25 11 12 112 69 166 94 119 54 281 105 384 120 24 4 47 8
51 11 25 15 326 23 469 11 233 -18 463 -89 646 -199 117 -70 122 -71 150 -53
37 24 31 60 -16 93 -45 31 -40 -1 -42 297 0 93 -6 187 -14 225 -20 94 -76 198
-148 273 -90 94 -175 132 -451 197 -240 58 -322 66 -425 44z m230 -68 c14 -3
88 -22 165 -42 77 -20 156 -39 175 -44 198 -46 332 -169 381 -350 7 -27 13
-128 15 -251 l2 -207 -91 43 c-74 34 -194 78 -252 91 -230 54 -264 59 -500 59
-253 0 -350 -12 -553 -71 -85 -25 -248 -89 -266 -106 -31 -26 -34 -7 -31 200
3 223 7 246 51 337 55 113 169 204 309 248 47 14 330 84 385 94 13 2 26 6 29
8 5 6 149 -2 181 -9z"/>
<path d="M229 1939 c-182 -182 -200 -204 -194 -228 6 -28 376 -406 408 -417
28 -9 67 22 67 55 0 23 -31 58 -171 198 l-171 170 171 171 c111 112 171 179
171 193 0 37 -19 59 -50 59 -25 0 -60 -31 -231 -201z"/>
<path d="M3040 2121 c-22 -42 -10 -60 161 -232 l171 -173 -171 -169 c-142
-140 -171 -174 -171 -198 0 -33 38 -64 67 -55 10 4 105 93 212 200 144 144
194 200 196 220 3 24 -23 54 -196 227 -169 169 -203 199 -229 199 -19 0 -33
-7 -40 -19z"/>
<path d="M934 1549 c7 -119 13 -187 21 -229 3 -14 8 -43 11 -65 12 -76 56
-211 98 -300 72 -149 213 -315 343 -403 60 -40 176 -91 228 -100 44 -7 235 -8
270 0 251 53 517 320 618 618 27 78 62 239 71 325 12 104 17 265 9 265 -16 0
-38 -72 -48 -159 -12 -108 -15 -113 -96 -193 -44 -42 -80 -85 -80 -95 -1 -10
-1 -47 -1 -83 0 -36 -6 -80 -14 -98 -16 -39 -45 -76 -61 -79 -18 -4 -31 46
-37 135 -3 46 -10 91 -16 101 -16 30 -102 80 -209 120 -177 68 -280 82 -391
52 -75 -20 -232 -82 -286 -112 -73 -41 -87 -67 -92 -168 -4 -86 -14 -131 -31
-131 -18 0 -60 61 -71 102 -6 22 -11 63 -9 92 3 82 2 85 -62 144 -88 82 -106
115 -113 202 -7 85 -23 145 -44 162 -12 10 -13 -4 -8 -103z m877 -379 c11 -6
41 -13 67 -16 92 -10 108 -12 153 -24 50 -13 98 -50 100 -78 6 -71 -14 -119
-76 -178 -45 -43 -100 -74 -132 -74 -11 0 -30 12 -44 26 -20 22 -24 38 -28
105 l-3 79 -79 0 -79 0 0 -58 c0 -111 -27 -156 -89 -147 -88 13 -204 142 -195
217 1 13 3 28 3 35 2 21 51 60 90 71 33 10 55 13 169 26 47 6 72 17 92 41 12
15 14 15 22 1 5 -9 18 -21 29 -26z"/>
</g>
</svg>
